HIERARCHY
ROOT Hips
{
  OFFSET -35.2597 29.1586 114.425
  CHANNELS 6 Xposition Yposition Zposition Zrotation Xrotation Yrotation
  JOINT LeftUpLeg
  {
    OFFSET 8.64259 1.95398 -2.38835
    CHANNELS 3 Zrotation Xrotation Yrotation
    JOINT LeftLeg
    {
      OFFSET 43.7702 0 0
      CHANNELS 3 Zrotation Xrotation Yrotation
      JOINT LeftFoot
      {
        OFFSET 40.6238 0 0
        CHANNELS 3 Zrotation Xrotation Yrotation
        JOINT LeftToeBase
        {
          OFFSET 12.7242 0 0
          CHANNELS 3 Zrotation Xrotation Yrotation
          End Site
          {
            OFFSET 0 0 0
          }
        }
      }
    }
  }
  JOINT RightUpLeg
  {
    OFFSET -8.2249 1.95398 -2.59336
    CHANNELS 3 Zrotation Xrotation Yrotation
    JOINT RightLeg
    {
      OFFSET 43.5653 0 0
      CHANNELS 3 Zrotation Xrotation Yrotation
      JOINT RightFoot
      {
        OFFSET 40.6238 0 0
        CHANNELS 3 Zrotation Xrotation Yrotation
        JOINT RightToeBase
        {
          OFFSET 12.7242 0 0
          CHANNELS 3 Zrotation Xrotation Yrotation
          End Site
          {
            OFFSET 0 0 0
          }
        }
      }
    }
  }
  JOINT Spine
  {
    OFFSET 0.165834 0.87714 6.61349
    CHANNELS 3 Zrotation Xrotation Yrotation
    JOINT Spine1
    {
      OFFSET 7.38963 1.71661e-005 0
      CHANNELS 3 Zrotation Xrotation Yrotation
      JOINT Spine2
      {
        OFFSET 11.9445 1.14441e-005 0
        CHANNELS 3 Zrotation Xrotation Yrotation
        JOINT Spine3
        {
          OFFSET 14.7254 4.19617e-005 0
          CHANNELS 3 Zrotation Xrotation Yrotation
          JOINT Spine4
          {
            OFFSET 10.9679 0 0
            CHANNELS 3 Zrotation Xrotation Yrotation
            JOINT RightShoulder
            {
              OFFSET 2.46616 -1.6653 3.69651
              CHANNELS 3 Zrotation Xrotation Yrotation
              JOINT RightArm
              {
                OFFSET 13.0012 0 0
                CHANNELS 3 Zrotation Xrotation Yrotation
                JOINT RightForeArm
                {
                  OFFSET 28.7848 1.62311e-005 0
                  CHANNELS 3 Zrotation Xrotation Yrotation
                  JOINT RightHand
                  {
                    OFFSET 26.5688 1.62095e-005 0
                    CHANNELS 3 Zrotation Xrotation Yrotation
                    End Site
                    {
                      OFFSET 0 0 0
                    }
                  }
                }
              }
            }
            JOINT LeftShoulder
            {
              OFFSET 2.38034 -1.29275 -3.7523
              CHANNELS 3 Zrotation Xrotation Yrotation
              JOINT LeftArm
              {
                OFFSET 16.3182 6.07031e-005 0
                CHANNELS 3 Zrotation Xrotation Yrotation
                JOINT LeftForeArm
                {
                  OFFSET 27.0901 0 0
                  CHANNELS 3 Zrotation Xrotation Yrotation
                  JOINT LeftHand
                  {
                    OFFSET 24.5451 1.51738e-005 0
                    CHANNELS 3 Zrotation Xrotation Yrotation
                    End Site
                    {
                      OFFSET 0 0 0
                    }
                  }
                }
              }
            }
            JOINT Neck
            {
              OFFSET 5.0226 -0.0266342 0
              CHANNELS 3 Zrotation Xrotation Yrotation
              JOINT Head
              {
                OFFSET 6.69364 2.86102e-005 0
                CHANNELS 3 Zrotation Xrotation Yrotation
                End Site
                {
                  OFFSET 0 0 0
                }
              }
            }
          }
        }
      }
    }
  }
}
MOTION
Frames:	7
Frame Time:	0.0416667
22.5066 97.0101 -42.0288 -130.259 -76.1823 -134.371 -174.306 15.383 82.5912 -25.0099 -0.681376 -4.44817 64.0697 1.8454 -0.856828 6.30519 -16.9405 5.55156 169.236 -12.0237 80.1805 -41.6792 -26.6552 -5.81744 62.5552 -1.73514 -1.64275 41.7025 -5.92448 3.80959 1.41692 7.86027 -89.9202 11.1579 2.85734 -0.120176 -0.509956 2.84928 -0.245925 -23.0692 2.76125 0.744798 -3.05653 2.76125 0.744804 86.0367 -34.5346 -112.429 40.1259 6.96292 -13.4623 -5.46872 -44.3923 -5.55262 -23.1953 3.67536 -23.4877 -84.587 -62.666 88.25 -16.4234 -16.4729 7.17778 2.87521 24.1158 -3.93473 -2.06302 -0.103148 -9.04898 -4.1851 1.29965 5.79398 -7.05616 0.81571 -2.29964 
23.4269 97.2772 -34.8856 -131.971 -75.0331 -138.178 -175.2 10.4862 79.2198 -27.26 -2.15395 -4.7829 69.2634 4.99584 0.528251 7.5211 -15.9991 5.44877 173.996 0.550006 78.9567 -63.3098 -25.571 -8.31013 54.1311 3.80616 1.89048 26.0329 0.3583 2.44183 1.15875 7.95233 -89.7059 10.9665 2.44307 0.352716 -0.702239 2.45623 0.244779 -23.2528 2.22407 1.07099 -3.24011 2.22407 1.07098 86.4001 -34.4503 -111.804 42.8028 6.73812 -8.9043 -5.44498 -44.0679 -5.53778 -20.6892 2.68617 -20.3439 -84.7376 -62.4227 88.028 -16.4543 -16.7139 -5.59253 2.94566 26.264 -4.00198 0.360323 -0.261849 -11.1885 -5.55231 2.15714 7.33214 -6.16938 1.54641 -1.54941 
24.0266 97.9129 -29.3777 -141.305 -76.6272 -146.822 -176.013 5.87668 78.5848 -26.1106 -0.167752 -4.04098 71.905 6.85456 0.497815 9.19598 -15.7469 6.58267 178.085 10.0178 82.3386 -65.9272 -18.4657 -7.54633 62.9126 -1.95454 -1.01163 27.3741 -0.245352 2.71688 0.701111 8.01635 -89.841 10.8423 1.46945 0.177017 -0.827859 1.47581 0.112152 -23.3689 1.3483 0.610537 -3.35625 1.3483 0.61054 86.5254 -35.1943 -111.261 42.0311 8.21119 -4.10545 -5.48744 -44.644 -5.56405 -19.2469 2.16433 -18.4161 -84.6078 -60.4883 88.0053 -16.3924 -17.0479 -19.9034 3.00073 27.858 -4.05925 4.67451 -0.838119 -16.3753 -6.39576 3.30071 7.81156 -6.27905 2.611 0.789077 
24.1718 98.4298 -24.5897 -163.494 -79.7323 -167.319 -176.513 2.6029 79.7487 -24.9488 4.88255 -2.72196 73.9262 8.15242 0.74026 10.3075 -15.7236 7.5369 -179.406 15.5951 86.2747 -51.2483 -13.7385 -6.86381 65.823 -4.07149 -0.994435 26.6712 0.550874 1.10354 0.257757 8.05962 -90.1911 10.7564 0.425177 -0.418816 -0.914533 0.406331 -0.437129 -23.45 0.531395 -0.271669 -3.43738 0.531387 -0.271678 87.1154 -35.1503 -110.211 40.0438 10.0397 0.896309 -5.43342 -43.9078 -5.53034 -19.3269 2.2007 -18.5569 -84.9486 -57.6009 87.2308 -17.2025 -16.8007 -32.3777 3.00611 27.9679 -4.06473 8.8568 -1.67593 -20.3437 -6.49665 3.4296 7.59151 -5.25201 2.70335 2.41073 
24.2288 98.4193 -19.5246 162.025 -80.4307 158.416 -176.243 -0.65111 80.7159 -24.2382 11.6992 -2.34145 76.3106 9.88011 1.3024 8.68775 -15.8146 6.22312 -177.127 17.0819 87.3506 -31.8422 -23.5379 -7.5232 62.9385 -3.22542 -1.15565 28.6038 -0.394046 1.5814 -0.190473 8.06556 -90.2632 10.7415 -0.500606 -0.477207 -0.929468 -0.521117 -0.454731 -23.4643 -0.334045 -0.605594 -3.45167 -0.334038 -0.605597 87.396 -35.4154 -109.596 39.3058 11.0514 4.85039 -5.34474 -42.66 -5.47657 -19.2858 2.15477 -18.3106 -85.1478 -54.9403 86.6417 -18.2711 -16.1054 -40.617 2.94125 26.1104 -3.99938 15.7394 -2.69084 -20.579 -5.91774 3.34129 6.03291 -5.21726 2.68863 3.09232 
24.5614 97.8918 -13.7624 135.191 -77.3897 131.345 -175.17 -4.62431 82.419 -24.2964 19.1315 -2.53252 79.3603 12.3249 1.25035 9.83336 -15.531 6.87373 -178.222 14.9193 87.219 -14.1663 -43.6079 -6.56012 61.3572 -1.99239 1.21428 33.7115 -2.086 0.0793298 -0.550145 8.08964 -90.2672 10.6925 -1.21868 -0.419859 -0.977943 -1.23598 -0.365813 -23.5159 -1.03616 -0.76674 -3.50327 -1.03615 -0.766732 87.5862 -36.3781 -108.883 38.4103 11.7513 7.23284 -5.30876 -42.1375 -5.45521 -17.2789 2.08271 -19.4296 -85.8039 -53.7341 85.5461 -19.2903 -15.2657 -44.0997 2.8661 23.8277 -3.92572 14.3973 -2.90745 -23.299 -5.57895 2.67619 4.66059 -4.93453 2.12018 3.63301 
25.0787 97.0734 -7.17478 120.32 -71.9119 116.105 -174.454 -9.54179 84.781 -23.851 26.4571 -1.90657 82.4146 15.6543 1.00288 10.759 -15.9629 8.24869 -177.68 14.5747 88.2558 -16.9086 -49.8858 -9.29 60.6668 -0.683214 2.25101 37.3534 -3.60539 0.135199 -0.911197 8.02643 -90.2305 10.8194 -1.92064 -0.28058 -0.850117 -1.93114 -0.195744 -23.395 -1.7475 -0.845005 -3.38231 -1.7475 -0.845009 87.7627 -37.5821 -108.127 39.0698 11.6919 7.9322 -5.27616 -41.6601 -5.43589 -19.1235 2.08869 -18.0022 -86.3409 -53.9089 84.7963 -21.4184 -13.588 -41.4119 2.95418 26.4603 -4.01949 15.3498 -2.75983 -21.5322 -5.35366 2.15555 3.05162 -5.77852 1.69294 4.11319 
